<svg width="26" height="31" viewBox="0 0 26 31" fill="none" xmlns="http://www.w3.org/2000/svg">
<path d="M21.0591 29.0464C19.426 30.6295 17.6429 30.3795 15.9265 29.6296C14.11 28.8631 12.4436 28.8297 10.5271 29.6296C8.12744 30.6628 6.86093 30.3629 5.42778 29.0464C-2.70453 20.6641 -1.50468 7.89903 7.72749 7.43243C9.97721 7.54908 11.5437 8.6656 12.8602 8.76559C14.8266 8.36564 16.7097 7.21579 18.8094 7.36577C21.3258 7.56574 23.2255 8.56562 24.4754 10.3654C19.276 13.4817 20.5092 20.3308 25.2753 22.2472C24.3254 24.7469 23.0922 27.2299 21.0425 29.063L21.0591 29.0464ZM12.6935 7.33244C12.4436 3.61624 15.4598 0.549962 18.9261 0.25C19.4093 4.54946 15.0266 7.74905 12.6935 7.33244Z" fill="black"/>
</svg>
