<svg width="26" height="26" viewBox="0 0 26 26" fill="none" xmlns="http://www.w3.org/2000/svg">
<path d="M10.6156 19.0234L10.616 19.0234C10.7626 19.0211 10.9071 18.9873 11.0395 18.9243C11.1719 18.8613 11.2893 18.7705 11.3836 18.6582L19.7836 8.6582L19.7656 8.64312L19.7838 8.65794C19.9537 8.44959 20.0349 8.18272 20.0096 7.91504C19.9844 7.64735 19.8549 7.40034 19.649 7.22741C19.4431 7.05447 19.1774 6.9695 18.9094 6.99085C18.6414 7.01221 18.3925 7.13819 18.2166 7.34154L18.2164 7.3418L10.5719 16.4405L7.75966 13.316C7.75959 13.3159 7.75953 13.3158 7.75947 13.3158C7.67064 13.2124 7.56205 13.1278 7.44009 13.0669C7.31803 13.0061 7.18504 12.9702 7.04892 12.9614C6.9128 12.9527 6.77631 12.9712 6.64746 13.016C6.51861 13.0607 6.40001 13.1308 6.29862 13.222C6.19723 13.3132 6.1151 13.4238 6.05706 13.5473C5.99902 13.6707 5.96624 13.8045 5.96065 13.9408C5.95505 14.0771 5.97676 14.2131 6.02449 14.3409C6.07218 14.4686 6.14491 14.5854 6.23839 14.6846C6.23845 14.6847 6.23851 14.6848 6.23857 14.6848L9.8382 18.6844C9.93413 18.7911 10.0514 18.8764 10.1824 18.9348C10.3135 18.9932 10.4553 19.0234 10.5987 19.0234L10.6156 19.0234ZM0.0234375 13C0.0234375 5.84482 5.84482 0.0234375 13 0.0234375C20.1552 0.0234375 25.9766 5.84482 25.9766 13C25.9766 20.1552 20.1552 25.9766 13 25.9766C5.84482 25.9766 0.0234375 20.1552 0.0234375 13Z" fill="#4A69E2" stroke="#4A69E2" stroke-width="0.046875"/>
</svg>
