<svg width="26" height="26" viewBox="0 0 26 26" fill="none" xmlns="http://www.w3.org/2000/svg">
<path d="M0.0234375 13C0.0234375 5.84482 5.84482 0.0234375 13 0.0234375C20.1552 0.0234375 25.9766 5.84482 25.9766 13C25.9766 20.1552 20.1552 25.9766 13 25.9766C5.84482 25.9766 0.0234375 20.1552 0.0234375 13ZM14.0234 18V14.0234H18C18.2714 14.0234 18.5317 13.9156 18.7237 13.7237C18.9156 13.5317 19.0234 13.2714 19.0234 13C19.0234 12.7286 18.9156 12.4683 18.7237 12.2763C18.5317 12.0844 18.2714 11.9766 18 11.9766H14.0234V8C14.0234 7.72857 13.9156 7.46825 13.7237 7.27632C13.5317 7.08439 13.2714 6.97656 13 6.97656C12.7286 6.97656 12.4683 7.08439 12.2763 7.27632C12.0844 7.46825 11.9766 7.72857 11.9766 8V11.9766H8C7.72857 11.9766 7.46825 12.0844 7.27632 12.2763C7.08439 12.4683 6.97656 12.7286 6.97656 13C6.97656 13.2714 7.08439 13.5317 7.27632 13.7237C7.46825 13.9156 7.72857 14.0234 8 14.0234H11.9766V18C11.9766 18.2714 12.0844 18.5317 12.2763 18.7237C12.4683 18.9156 12.7286 19.0234 13 19.0234C13.2714 19.0234 13.5317 18.9156 13.7237 18.7237C13.9156 18.5317 14.0234 18.2714 14.0234 18Z" fill="#FFA52F" stroke="#FFA52F" stroke-width="0.046875"/>
</svg>
