<svg width="12" height="9" viewBox="0 0 12 9" fill="none" xmlns="http://www.w3.org/2000/svg">
<path d="M5.33333 8.5C5.14444 8.5 4.98622 8.436 4.85867 8.308C4.73067 8.18044 4.66667 8.02222 4.66667 7.83333C4.66667 7.64444 4.73067 7.48622 4.85867 7.35867C4.98622 7.23067 5.14444 7.16667 5.33333 7.16667H6.66667C6.85556 7.16667 7.014 7.23067 7.142 7.35867C7.26956 7.48622 7.33333 7.64444 7.33333 7.83333C7.33333 8.02222 7.26956 8.18044 7.142 8.308C7.014 8.436 6.85556 8.5 6.66667 8.5H5.33333ZM0.666667 1.83333C0.477778 1.83333 0.319556 1.76956 0.192 1.642C0.0640001 1.514 0 1.35556 0 1.16667C0 0.977778 0.0640001 0.819333 0.192 0.691333C0.319556 0.563778 0.477778 0.5 0.666667 0.5H11.3333C11.5222 0.5 11.6804 0.563778 11.808 0.691333C11.936 0.819333 12 0.977778 12 1.16667C12 1.35556 11.936 1.514 11.808 1.642C11.6804 1.76956 11.5222 1.83333 11.3333 1.83333H0.666667ZM2.66667 5.16667C2.47778 5.16667 2.31933 5.10267 2.19133 4.97467C2.06378 4.84711 2 4.68889 2 4.5C2 4.31111 2.06378 4.15267 2.19133 4.02467C2.31933 3.89711 2.47778 3.83333 2.66667 3.83333H9.33333C9.52222 3.83333 9.68044 3.89711 9.808 4.02467C9.936 4.15267 10 4.31111 10 4.5C10 4.68889 9.936 4.84711 9.808 4.97467C9.68044 5.10267 9.52222 5.16667 9.33333 5.16667H2.66667Z" fill="black"/>
</svg>
